<svg xmlns="http://www.w3.org/2000/svg" width="650" height="280"><rect width="650" height="140" fill="#F8F7F4"/><rect y="140" width="650" height="140" fill="#16181D"/><g transform="translate(50,82)"><text y="-24" font-family="Arial" font-size="16" fill="#16181D">16px actual size</text><svg width="16" height="16" viewBox="0 0 64 64"><path d="M6 6L28 27V58H6V6Z" fill="#3358D4"/><path d="M28 27L58 6L40 38L28 27Z" fill="#16181D"/><path d="M58 6V58H32L58 6Z" fill="#3358D4"/></svg><svg y="100" width="16" height="16" viewBox="0 0 64 64"><path d="M6 6L28 27V58H6V6ZM28 27L58 6L40 38L28 27ZM58 6V58H32L58 6Z" fill="white"/></svg></g><g transform="translate(250,82)"><text y="-24" font-family="Arial" font-size="16" fill="#16181D">24px actual size</text><svg width="24" height="24" viewBox="0 0 64 64"><path d="M6 6L28 27V58H6V6Z" fill="#3358D4"/><path d="M28 27L58 6L40 38L28 27Z" fill="#16181D"/><path d="M58 6V58H32L58 6Z" fill="#3358D4"/></svg><svg y="100" width="24" height="24" viewBox="0 0 64 64"><path d="M6 6L28 27V58H6V6ZM28 27L58 6L40 38L28 27ZM58 6V58H32L58 6Z" fill="white"/></svg></g><g transform="translate(450,82)"><text y="-24" font-family="Arial" font-size="16" fill="#16181D">32px actual size</text><svg width="32" height="32" viewBox="0 0 64 64"><path d="M6 6L28 27V58H6V6Z" fill="#3358D4"/><path d="M28 27L58 6L40 38L28 27Z" fill="#16181D"/><path d="M58 6V58H32L58 6Z" fill="#3358D4"/></svg><svg y="100" width="32" height="32" viewBox="0 0 64 64"><path d="M6 6L28 27V58H6V6ZM28 27L58 6L40 38L28 27ZM58 6V58H32L58 6Z" fill="white"/></svg></g></svg>